<svg
  xmlns="http://www.w3.org/2000/svg"
  width="175"
  height="59"
  viewBox="0 0 175 59"
  fill="none"
>
  <title>Piviit</title>
  <path transform="translate(5.00,52) scale(0.0671,-0.0671)" d="M297 702Q394 702 457.5 679.5Q521 657 553.0 613.5Q585 570 585 506Q585 467 570.0 424.5Q555 382 518.0 345.5Q481 309 415.0 286.0Q349 263 246 263Q241 263 229.0 263.0Q217 263 207 264L199 119Q198 92 196.0 72.5Q194 53 192 40Q208 41 223.0 42.0Q238 43 253.5 43.5Q269 44 284 45L282 0H41L43 33Q81 35 96.0 50.5Q111 66 114.0 93.5Q117 121 118 156L141 588Q143 608 144.5 626.5Q146 645 148 660Q130 659 111.5 658.0Q93 657 75 656L78 700Q131 701 185.0 701.5Q239 702 297 702ZM293 663Q262 663 247.0 649.5Q232 636 228.0 610.5Q224 585 222 549L209 306Q228 304 242.0 303.5Q256 303 274 303Q331 303 379.5 325.0Q428 347 458.0 389.0Q488 431 491 489Q493 536 480.0 569.5Q467 603 440.5 623.5Q414 644 376.5 653.5Q339 663 293 663Z" fill="currentColor"/>
  <path transform="translate(45.08,52) scale(0.0671,-0.0671)" d="M133 511Q175 511 196.0 482.5Q217 454 217 407Q217 377 211.5 338.5Q206 300 198.0 256.0Q190 212 184.5 167.5Q179 123 179 81Q179 61 186.5 50.0Q194 39 210 39Q227 39 247.5 61.0Q268 83 283 136L311 130Q307 109 297.5 84.5Q288 60 273.0 38.5Q258 17 236.5 3.0Q215 -11 187 -11Q141 -11 119.0 13.0Q97 37 97 83Q97 127 103.0 168.5Q109 210 116.5 250.5Q124 291 130.0 332.0Q136 373 136 416Q136 429 130.5 445.0Q125 461 108 461Q92 461 71.0 439.0Q50 417 35 364L7 370Q10 388 19.0 411.5Q28 435 43.5 458.0Q59 481 81.0 496.0Q103 511 133 511ZM190 727Q213 727 228.0 711.5Q243 696 243 670Q243 645 227.0 629.5Q211 614 189 614Q167 614 151.5 629.5Q136 645 136 670Q136 696 152.0 711.5Q168 727 190 727Z" fill="currentColor"/>
  <path transform="translate(66.84,52) scale(0.0671,-0.0671)" d="M363 511Q408 511 436.5 482.5Q465 454 476.5 407.5Q488 361 484.0 307.0Q480 253 460 201Q445 161 420.5 123.5Q396 86 364.5 55.5Q333 25 297.0 7.0Q261 -11 222 -11Q181 -11 156.0 6.5Q131 24 120.0 53.5Q109 83 108 117Q107 159 110.0 202.0Q113 245 117.0 285.5Q121 326 124.5 359.5Q128 393 128 415Q128 433 123.0 446.5Q118 460 100 460Q84 460 65.0 438.0Q46 416 32 362L4 369Q7 387 15.5 410.5Q24 434 39.0 457.0Q54 480 76.0 495.0Q98 510 128 511Q155 512 173.0 501.0Q191 490 200.5 468.5Q210 447 211 416Q211 386 208.5 345.5Q206 305 202.5 262.5Q199 220 196.0 182.5Q193 145 192 119Q192 103 194.0 85.0Q196 67 206.0 55.0Q216 43 240 43Q265 43 292.0 58.0Q319 73 344.5 98.0Q370 123 390.5 155.5Q411 188 422 224Q428 244 433.0 276.5Q438 309 436.5 343.5Q435 378 424.0 406.0Q413 434 388 444Q382 431 371.5 425.0Q361 419 348 419Q335 419 321.0 429.0Q307 439 306 461Q306 471 311.5 482.5Q317 494 329.5 502.5Q342 511 363 511Z" fill="currentColor"/>
  <path transform="translate(102.16,52) scale(0.0671,-0.0671)" d="M133 511Q175 511 196.0 482.5Q217 454 217 407Q217 377 211.5 338.5Q206 300 198.0 256.0Q190 212 184.5 167.5Q179 123 179 81Q179 61 186.5 50.0Q194 39 210 39Q227 39 247.5 61.0Q268 83 283 136L311 130Q307 109 297.5 84.5Q288 60 273.0 38.5Q258 17 236.5 3.0Q215 -11 187 -11Q141 -11 119.0 13.0Q97 37 97 83Q97 127 103.0 168.5Q109 210 116.5 250.5Q124 291 130.0 332.0Q136 373 136 416Q136 429 130.5 445.0Q125 461 108 461Q92 461 71.0 439.0Q50 417 35 364L7 370Q10 388 19.0 411.5Q28 435 43.5 458.0Q59 481 81.0 496.0Q103 511 133 511ZM190 727Q213 727 228.0 711.5Q243 696 243 670Q243 645 227.0 629.5Q211 614 189 614Q167 614 151.5 629.5Q136 645 136 670Q136 696 152.0 711.5Q168 727 190 727Z" fill="currentColor"/>
  <path transform="translate(123.91,52) scale(0.0671,-0.0671)" d="M133 511Q175 511 196.0 482.5Q217 454 217 407Q217 377 211.5 338.5Q206 300 198.0 256.0Q190 212 184.5 167.5Q179 123 179 81Q179 61 186.5 50.0Q194 39 210 39Q227 39 247.5 61.0Q268 83 283 136L311 130Q307 109 297.5 84.5Q288 60 273.0 38.5Q258 17 236.5 3.0Q215 -11 187 -11Q141 -11 119.0 13.0Q97 37 97 83Q97 127 103.0 168.5Q109 210 116.5 250.5Q124 291 130.0 332.0Q136 373 136 416Q136 429 130.5 445.0Q125 461 108 461Q92 461 71.0 439.0Q50 417 35 364L7 370Q10 388 19.0 411.5Q28 435 43.5 458.0Q59 481 81.0 496.0Q103 511 133 511ZM190 727Q213 727 228.0 711.5Q243 696 243 670Q243 645 227.0 629.5Q211 614 189 614Q167 614 151.5 629.5Q136 645 136 670Q136 696 152.0 711.5Q168 727 190 727Z" fill="currentColor"/>
  <path transform="translate(145.66,52) scale(0.0671,-0.0671)" d="M217 641 199 500H358L355 462L195 460Q191 418 185.5 373.5Q180 329 176.0 285.0Q172 241 169.0 200.5Q166 160 166 127Q166 108 168.5 87.5Q171 67 181.0 53.5Q191 40 213 40Q223 40 237.5 44.0Q252 48 270.0 63.0Q288 78 307 110L333 93Q304 42 270.5 15.5Q237 -11 189 -11Q150 -11 127.5 5.5Q105 22 95.0 49.0Q85 76 85 107Q85 145 88.0 199.5Q91 254 97.0 320.5Q103 387 111 459L22 458L25 500Q94 500 127.0 537.0Q160 574 179 641Z" fill="currentColor"/>
</svg>